<svg width="804" height="554" viewBox="0 0 804 554" fill="none" xmlns="http://www.w3.org/2000/svg">
<rect x="193" y="187" width="418" height="299" rx="6" fill="#E4CCFF"/>
<path d="M223.333 262.328V175C223.333 171.686 226.02 169 229.333 169H574.667C577.98 169 580.667 171.686 580.667 175V260.896C580.667 260.897 580.668 260.897 580.669 260.897L580.671 260.897H798C801.314 260.897 804 263.584 804 266.897V405.667C804 408.98 801.314 411.667 798 411.667H580.67C580.667 411.667 580.667 411.669 580.667 411.672V499C580.667 502.314 577.98 505 574.667 505H229.333C226.02 505 223.333 502.314 223.333 499V411.668C223.333 411.665 223.329 411.667 223.326 411.667H6C2.68629 411.667 0 408.98 0 405.667V268.333C0 265.02 2.68629 262.333 6 262.333H223.33C223.333 262.333 223.333 262.331 223.333 262.328Z" fill="#E4CCFF"/>
<path d="M388.432 2.78881C390.788 -0.929611 396.212 -0.929601 398.568 2.78882L568.068 273.789C569.311 275.749 569.311 278.251 568.068 280.211L398.568 551.211C396.212 554.93 390.788 554.93 388.432 551.211L218.932 280.211C217.689 278.251 217.689 275.749 218.932 273.789L388.432 2.78881Z" fill="#E4CCFF"/>
<path d="M325.533 246.099C204.42 379.217 263.527 419.221 413.314 288.143C563.1 157.065 580.893 324.435 446 403.419" stroke="black" stroke-width="4"/>
<line x1="396" y1="183" x2="396" y2="454" stroke="black" stroke-width="4"/>
</svg>
